<?xml version="1.0" standalone="no"?>
<!DOCTYPE svg PUBLIC "-//W3C//DTD SVG 1.1//EN" "http://www.w3.org/Graphics/SVG/1.1/DTD/svg11.dtd" >
<svg xmlns="http://www.w3.org/2000/svg">
<metadata>Generated by IcoMoon</metadata>
<defs>
<font id="iconfont" horiz-adv-x="1024">
<font-face units-per-em="1024" ascent="819" descent="-205" />
<missing-glyph horiz-adv-x="1024" />
<glyph unicode="&#x20;" horiz-adv-x="0" d="" />
<glyph unicode="&#x41;" glyph-name="A" horiz-adv-x="650" d="M539.648-47.104q-48.128 27.136-76.8 105.984l-25.6 66.56h-286.72l-81.92-194.56h-46.080l286.72 675.84h30.72l225.28-547.84q25.6-59.392 48.128-81.408t64.512-26.112v-20.48q-18.432-5.12-40.96-5.12-49.152 0-97.28 27.136zM416.768 166.4l-122.88 296.96-128-296.96h250.88z" />
<glyph unicode="&#x42;" glyph-name="B" horiz-adv-x="637" d="M94.208 561.152q-14.336 25.088-57.344 25.088h-20.48v20.48h266.24q111.616 0 194.048-36.864t82.432-142.336q0-48.128-32.768-87.040t-100.352-61.44q94.208-15.36 131.584-55.808t37.376-108.032q0-103.424-81.408-143.872t-200.192-40.448h-204.8v552.96q0 52.224-14.336 77.312zM377.344 310.272q37.376 15.872 60.928 47.104t23.552 75.264q0 46.080-27.648 77.312t-70.144 46.080-86.528 14.848q-35.84 0-76.8-10.24v-266.24h97.28q41.984 0 79.36 15.872zM441.856 3.584q50.688 36.864 50.688 106.496t-49.664 106.496-144.896 36.864h-97.28v-272.384q49.152-14.336 97.28-14.336 93.184 0 143.872 36.864z" />
<glyph unicode="&#x43;" glyph-name="C" horiz-adv-x="681" d="M195.072-43.52q-72.192 46.080-111.104 125.44t-38.912 176.64q0 100.352 42.496 185.344t115.712 134.144 159.232 49.152q81.92 0 143.872-23.040t91.648-58.88q17.408-21.504 21.504-56.832t4.096-96.768h-20.48q-19.456 99.328-71.68 146.944t-138.24 47.616q-110.592 0-178.176-77.824t-67.584-249.856q0-80.896 26.112-150.528t81.408-113.152 138.24-43.52q74.752 0 130.56 35.84t99.84 107.52l20.48-15.36q-47.104-92.16-116.224-130.56t-165.376-38.4q-95.232 0-167.424 46.080z" />
<glyph unicode="&#x44;" glyph-name="D" horiz-adv-x="732" d="M94.208 561.152q-14.336 25.088-57.344 25.088h-20.48v20.48h268.288q198.656 0 300.544-88.064t101.888-245.76q0-101.376-43.008-178.688t-127.488-120.32-205.312-43.008h-202.752v552.96q0 52.224-14.336 77.312zM444.928 4.096q60.928 37.376 95.744 105.472t34.816 159.232q0 89.088-34.304 157.696t-95.744 106.496-139.264 37.888q-49.152 0-102.4-16.384v-574.464q57.344-13.312 104.448-13.312 75.776 0 136.704 37.376z" />
<glyph unicode="&#x45;" glyph-name="E" horiz-adv-x="604" d="M94.208 561.152q-14.336 25.088-57.344 25.088h-20.48v20.48h436.224q87.040 0 87.040-81.92v-76.8h-20.48q0 117.76-128 117.76h-190.464v-266.24h276.48v-40.96h-276.48v-286.72h179.2q70.656 0 110.592 25.6t63.488 87.040l20.48-5.12-35.84-97.28q-18.432-51.2-76.8-51.2h-353.28v552.96q0 52.224-14.336 77.312z" />
<glyph unicode="&#x46;" glyph-name="F" horiz-adv-x="540" d="M94.208 561.152q-14.336 25.088-57.344 25.088h-20.48v20.48h408.576q87.040 0 87.040-81.92v-76.8h-20.48q0 117.76-128 117.76h-162.816v-271.36h231.424v-40.96h-231.424v-322.56h-92.16v552.96q0 52.224-14.336 77.312z" />
<glyph unicode="&#x47;" glyph-name="G" horiz-adv-x="737" d="M213.504-40.448q-79.36 49.152-123.904 133.632t-44.544 185.856q0 97.28 38.912 176.64t111.104 125.44 167.424 46.080q88.064 0 152.064-23.040t93.696-58.88q16.384-20.48 20.992-54.272t4.608-83.968h-20.48q-19.456 90.112-73.728 134.656t-146.432 44.544q-82.944 0-138.24-43.52t-81.408-113.152-26.112-150.528q0-173.056 67.584-250.368t178.176-77.312q52.224 0 89.088 9.216t69.632 26.624v178.176q0 34.816 11.264 60.416t48.64 42.496 109.056 16.896v-20.48q-46.080 0-61.44-23.552t-15.36-73.728v-192.512q-55.296-33.792-115.712-49.152t-135.168-15.36q-100.352 0-179.712 49.152z" />
<glyph unicode="&#x48;" glyph-name="H" horiz-adv-x="710" d="M94.208 561.152q-14.336 25.088-57.344 25.088h-20.48v20.48h92.16q37.888 0 56.832-9.728t27.136-35.328 8.192-77.824v-184.32h307.2v307.2h92.16v-552.96q0-52.224 14.336-77.312t57.344-25.088h20.48v-20.48h-92.16q-37.888 0-56.832 9.728t-27.136 35.328-8.192 77.824v204.8h-307.2v-327.68h-92.16v552.96q0 52.224-14.336 77.312z" />
<glyph unicode="&#x49;" glyph-name="I" horiz-adv-x="292" d="M126.464-59.392q-18.944 9.728-27.136 35.328t-8.192 77.824v552.96h92.16v-552.96q0-52.224 14.336-77.312t57.344-25.088h20.48v-20.48h-92.16q-37.888 0-56.832 9.728z" />
<glyph unicode="&#x4a;" glyph-name="J" horiz-adv-x="267" d="M64-136.704q24.064 52.224 24.064 147.456v595.968h92.16v-595.968q0-79.872-16.896-127.488t-57.856-70.144-114.688-22.528v20.48q49.152 0 73.216 52.224z" />
<glyph unicode="&#x4b;" glyph-name="K" horiz-adv-x="693" d="M535.552-53.248q-52.224 26.112-119.808 96.768l-215.040 225.28v-337.92h-92.16v552.96q0 52.224-14.336 77.312t-57.344 25.088h-20.48v20.48h92.16q37.888 0 56.832-9.728t27.136-35.328 8.192-77.824v-199.68l215.040 215.040 20.48 21.504q28.672 29.696 48.128 46.592t46.080 28.16 59.392 11.264h51.2v-25.6q-43.008 0-74.752-14.848t-73.728-56.832l-199.68-199.68 235.52-245.76q45.056-46.080 91.136-77.312t82.944-36.352v-19.456q-30.72-10.24-66.56-10.24-48.128 0-100.352 26.112z" />
<glyph unicode="&#x4c;" glyph-name="L" horiz-adv-x="571" d="M94.208 561.152q-14.336 25.088-57.344 25.088h-20.48v20.48h92.16q37.888 0 56.832-9.728t27.136-35.328 8.192-77.824v-512h363.52v-40.96h-455.68v552.96q0 52.224-14.336 77.312z" />
<glyph unicode="&#x4d;" glyph-name="M" horiz-adv-x="876" d="M746.496-92.672q-40.96 22.528-57.856 70.144t-16.896 127.488v394.24l-256-568.32h-20.48l-266.24 578.56v-578.56h-40.96v675.84h97.28l245.76-532.48 240.64 532.48h92.16v-501.76q0-95.232 24.064-147.456t73.216-52.224v-20.48q-73.728 0-114.688 22.528z" />
<glyph unicode="&#x4e;" glyph-name="N" horiz-adv-x="701" d="M153.6-69.12h-40.96v552.96q0 49.152-20.992 75.776t-71.168 26.624h-10.24v20.48h66.56q47.104 0 79.872-15.36t58.368-46.080l358.4-445.44v506.88h40.96v-686.080h-20.48l-440.32 547.84v-537.6z" />
<glyph unicode="&#x4f;" glyph-name="O" horiz-adv-x="729" d="M197.12-42.496q-72.192 47.104-111.104 129.024t-38.912 182.272 38.912 182.272 111.104 129.024 167.424 47.104 167.424-47.104 111.104-129.024 38.912-182.272-38.912-182.272-111.104-129.024-167.424-47.104-167.424 47.104zM479.744-9.728q48.64 38.912 74.24 110.080t25.6 168.448-25.6 168.448-74.24 110.080-115.2 38.912-115.2-38.912-74.24-110.080-25.6-168.448 25.6-168.448 74.24-110.080 115.2-38.912 115.2 38.912z" />
<glyph unicode="&#x50;" glyph-name="P" horiz-adv-x="565" d="M94.208 561.152q-14.336 25.088-57.344 25.088h-20.48v20.48h266.24q98.304 0 177.152-41.984t78.848-162.816q0-79.872-40.96-122.88t-91.648-57.344-92.672-14.336h-112.64v-276.48h-92.16v552.96q0 52.224-14.336 77.312zM347.136 260.096q36.864 16.896 62.976 53.76t26.112 93.184-26.112 93.184-62.976 53.76-69.632 16.896q-35.84 0-76.8-10.24v-307.2q40.96-10.24 76.8-10.24 32.768 0 69.632 16.896z" />
<glyph unicode="&#x51;" glyph-name="Q" horiz-adv-x="731" d="M466.944-232.96q-104.448 46.080-193.536 156.672-104.448 30.72-164.864 124.928t-60.416 220.16q0 100.352 38.912 182.272t111.104 129.024 167.424 47.104 167.424-47.104 111.104-129.024 38.912-182.272q0-129.024-62.976-223.744t-170.496-123.392q15.36-49.152 56.32-90.624t92.16-65.536 95.232-24.064v-20.48q-121.856 0-226.304 46.080zM480.768-9.728q48.64 38.912 74.24 110.080t25.6 168.448-25.6 168.448-74.24 110.080-115.2 38.912-115.2-38.912-74.24-110.080-25.6-168.448 25.6-168.448 74.24-110.080 115.2-38.912 115.2 38.912z" />
<glyph unicode="&#x52;" glyph-name="R" horiz-adv-x="609" d="M464.384-47.104q-40.448 32.256-89.6 116.224l-102.4 174.080h-71.68v-312.32h-92.16v552.96q0 52.224-14.336 77.312t-57.344 25.088h-20.48v20.48h266.24q97.28 0 176.64-38.4t79.36-145.92q0-136.192-163.84-174.080l107.52-179.2q37.888-63.488 68.096-88.576t70.144-29.184v-20.48q-9.216-4.096-26.112-7.168t-35.328-3.072q-54.272 0-94.72 32.256zM346.624 294.4q37.376 15.36 63.488 48.128t26.112 79.872q0 50.176-26.112 83.456t-63.488 49.152-69.12 15.872q-35.84 0-76.8-10.24v-271.36q40.96-10.24 76.8-10.24 31.744 0 69.12 15.36z" />
<glyph unicode="&#x53;" glyph-name="S" horiz-adv-x="546" d="M178.176-71.168q-54.272 15.36-88.576 44.032t-34.304 65.536v109.568h18.432q17.408-102.4 67.584-147.968t138.24-45.568q55.296 0 94.72 27.648t39.424 76.8q0 43.008-26.624 74.752t-86.016 66.56l-125.952 74.752q-65.536 38.912-92.672 78.848t-27.136 97.28q0 78.848 54.784 126.464t143.872 47.616q52.224 0 103.424-14.848t84.48-43.008 33.28-65.024v-109.568h-18.432q-17.408 102.4-66.048 146.944t-136.704 44.544q-47.104 0-82.944-28.672t-35.84-74.752q0-41.984 26.112-69.632t87.552-64.512l125.952-74.752q69.632-41.984 98.304-77.824t28.672-91.136q0-86.016-57.344-137.728t-155.648-51.712q-56.32 0-110.592 15.36z" />
<glyph unicode="&#x54;" glyph-name="T" horiz-adv-x="597" d="M169.984 565.76q-128 0-128-117.76h-20.48v76.8q0 81.92 87.040 81.92h476.16v-40.96h-230.4v-634.88h-92.16v634.88h-92.16z" />
<glyph unicode="&#x55;" glyph-name="U" horiz-adv-x="703" d="M206.848-46.080q-57.344 33.28-81.408 98.816t-24.064 169.984v261.12q0 52.224-14.336 77.312t-57.344 25.088h-20.48v20.48h92.16q37.888 0 56.832-9.728t27.136-35.328 8.192-77.824v-291.84q0-113.664 41.984-172.032t139.264-58.368q77.824 0 123.392 27.648t65.024 83.968 19.456 149.504v384h40.96v-384q0-106.496-22.528-171.52t-79.36-97.792-159.232-32.768q-98.304 0-155.648 33.28z" />
<glyph unicode="&#x56;" glyph-name="V" horiz-adv-x="655" d="M34.816 568.32q-22.528 22.016-64.512 26.112v20.48q5.12 0 14.848 1.024t19.968 1.024q51.2 0 98.304-26.112t79.872-103.936l175.104-412.672 60.416 140.288q43.008 99.328 164.864 392.192h49.152l-293.888-686.080h-18.432l-237.568 566.272q-25.6 59.392-48.128 81.408z" />
<glyph unicode="&#x57;" glyph-name="W" horiz-adv-x="887" d="M36.352 568.32q-23.040 22.016-69.12 26.112v20.48q5.12 0 14.848 1.024t19.968 1.024q56.32 0 101.888-25.6t73.216-104.448l137.216-395.264 109.568 324.608-24.576 70.656q-20.48 59.392-43.52 81.408t-69.12 26.112v20.48q5.12 0 14.848 1.024t19.968 1.024q56.32 0 101.888-25.6t73.216-104.448l137.216-395.264 175.104 515.072h44.032l-234.496-686.080h-20.48l-151.552 431.104-147.456-431.104h-20.48l-198.656 566.272q-20.48 59.392-43.52 81.408z" />
<glyph unicode="&#x58;" glyph-name="X" horiz-adv-x="683" d="M154.624 473.6q-24.576 35.84-43.008 56.832t-48.128 37.376-72.704 18.432v20.48h122.88q45.056 0 75.776-29.184t67.584-83.456l102.4-153.6 204.8 266.24h51.2l-230.4-302.080 163.84-240.64q31.744-47.104 68.096-78.336t80.384-34.304v-20.48h-107.52q-44.032 0-77.824 31.232t-65.536 81.408l-122.88 184.32-230.4-296.96h-51.2l256 332.8z" />
<glyph unicode="&#x59;" glyph-name="Y" horiz-adv-x="643" d="M122.88 473.6q-26.624 37.888-45.056 59.392t-43.52 36.352-59.904 16.896v20.48h92.16q51.2 0 86.016-30.208t67.584-82.432l148.48-230.4 214.016 343.040h46.080l-239.616-389.12v-286.72h-92.16v279.552z" />
<glyph unicode="&#x5a;" glyph-name="Z" horiz-adv-x="605" d="M449.536 565.76h-245.76q-128 0-128-117.76h-20.48v76.8q0 81.92 87.040 81.92h445.44l-435.2-634.88h419.84v-40.96h-547.84v20.48z" />
<glyph unicode="&#x61;" glyph-name="a" horiz-adv-x="493" d="M121.856-65.536q-33.792 13.824-57.856 45.568t-24.064 83.968q0 77.824 72.192 110.592t188.928 32.768h30.72q0 100.352-27.648 137.216t-79.872 36.864q-46.080 0-73.728-19.456t-38.912-67.584h-46.080q0 34.816 4.096 54.784t21.504 37.376q18.432 18.432 60.928 27.136t92.672 8.704q82.944 0 131.072-44.544t48.128-170.496v-276.48h-51.2l-35.84 46.080h-5.12q-18.432-23.552-54.272-39.936t-89.088-16.384q-32.768 0-66.56 13.824zM290.816-16.896q22.528 16.384 40.96 45.056v138.24h-30.72q-75.776 0-119.808-28.16t-44.032-74.24q0-47.104 28.16-72.192t69.12-25.088q33.792 0 56.32 16.384z" />
<glyph unicode="&#x62;" glyph-name="b" horiz-adv-x="536" d="M218.112-62.976q-33.792 16.384-52.224 39.936h-5.12l-35.84-46.080h-51.2v552.96q0 52.224-14.336 77.312t-57.344 25.088h-20.48v20.48h92.16q37.888 0 56.832-9.728t27.136-35.328 8.192-77.824v-92.16q29.696 14.336 59.392 22.528t68.608 8.192q95.232 0 144.896-70.656t49.664-180.224q0-108.544-48.128-179.712t-136.192-71.168q-52.224 0-86.016 16.384zM361.472 19.456q29.696 57.856 29.696 152.064 0 95.232-31.232 152.576t-96.768 57.344q-21.504 0-44.032-8.192t-53.248-22.528v-327.68q18.432-27.648 43.52-44.544t64-16.896q58.368 0 88.064 57.856z" />
<glyph unicode="&#x63;" glyph-name="c" horiz-adv-x="495" d="M146.944-46.080q-50.688 33.28-75.776 90.112t-25.088 127.488 25.088 127.488 75.776 90.112 124.416 33.28q112.64 0 148.48-35.84 17.408-17.408 21.504-42.496t4.096-90.624h-20.48q-4.096 63.488-39.936 95.744t-93.184 32.256q-73.728 0-111.104-58.368t-37.376-151.552 37.376-151.552 111.104-58.368q52.224 0 86.016 19.968t62.464 61.952l20.48-15.36q-33.792-57.344-79.872-82.432t-109.568-25.088q-73.728 0-124.416 33.28z" />
<glyph unicode="&#x64;" glyph-name="d" horiz-adv-x="537" d="M95.744-8.704q-47.616 70.656-47.616 180.224t49.664 180.224 144.896 70.656q38.912 0 68.608-8.192t59.392-22.528v92.16q0 52.224-14.336 77.312t-57.344 25.088h-20.48v20.48h92.16q37.888 0 56.832-9.728t27.136-35.328 8.192-77.824v-552.96h-51.2l-35.84 46.080h-5.12q-22.528-25.6-52.736-40.96t-85.504-15.36q-89.088 0-136.704 70.656zM326.656-23.040q21.504 15.36 44.032 46.080v327.68q-30.72 14.336-53.248 22.528t-44.032 8.192q-65.536 0-96.768-57.344t-31.232-152.576q0-94.208 29.696-152.064t88.064-57.856q41.984 0 63.488 15.36z" />
<glyph unicode="&#x65;" glyph-name="e" horiz-adv-x="500" d="M143.36-46.080q-48.128 33.28-72.704 90.112t-24.576 127.488q0 69.632 24.576 126.976t71.168 90.624 109.056 33.28q103.424 0 154.112-57.856t50.688-167.424l-2.048-40.96h-310.272q0-86.016 36.864-140.288t101.376-54.272q48.128 0 81.408 20.48t61.952 61.44l20.48-15.36q-33.792-56.32-78.848-81.92t-105.472-25.6q-69.632 0-117.76 33.28zM331.776 334.336q-26.624 47.104-80.896 47.104-30.72 0-55.296-24.064t-38.4-66.048-13.824-94.208h215.040q0 90.112-26.624 137.216z" />
<glyph unicode="&#x66;" glyph-name="f" horiz-adv-x="345" d="M21.504 371.2v40.96h71.68v30.72q0 174.080 179.2 174.080 64.512 0 87.040-15.36 17.408-13.312 35.84-46.080l-30.72-25.6q-30.72 46.080-97.28 46.080-81.92 0-81.92-133.12v-30.72h143.36v-40.96h-143.36v-440.32h-92.16v440.32h-71.68z" />
<glyph unicode="&#x67;" glyph-name="g" horiz-adv-x="504" d="M87.552-236.032q-60.928 37.888-60.928 120.832 0 47.104 31.744 81.92t80.896 51.2q-40.96 22.528-40.96 61.44 0 20.48 9.216 31.744t26.624 24.576q-32.768 16.384-54.784 51.2t-22.016 81.92q0 153.6 194.56 153.6h189.44v-25.6l-66.56-10.24v-5.12q31.744-16.384 51.712-45.568t19.968-67.072q0-153.6-194.56-153.6-107.52 0-107.52-35.84t107.52-35.84q99.328 0 162.304-39.424t62.976-119.296q0-82.944-60.928-120.832t-164.352-37.888-164.352 37.888zM326.144 179.2q28.16 28.16 28.16 89.6 0 58.368-28.16 88.064t-74.24 29.696-74.24-28.16-28.16-89.6 28.16-89.6 74.24-28.16 74.24 28.16zM349.184-203.776q35.84 29.184 35.84 88.576 0 102.4-122.88 117.76l-56.32 5.12q-41.984-16.384-64.512-46.080t-22.528-76.8q0-59.392 35.84-88.576t97.28-29.184 97.28 29.184z" />
<glyph unicode="&#x68;" glyph-name="h" horiz-adv-x="542" d="M59.392 561.152q-14.336 25.088-57.344 25.088h-20.48v20.48h92.16q37.888 0 56.832-9.728t27.136-35.328 8.192-77.824v-112.64q21.504 21.504 55.808 36.352t77.312 14.848q76.8 0 125.44-40.96t48.64-143.36v-307.2h-92.16v307.2q0 71.68-32.256 104.96t-80.384 33.28q-54.272 0-102.4-54.272v-391.168h-92.16v552.96q0 52.224-14.336 77.312z" />
<glyph unicode="&#x69;" glyph-name="i" horiz-adv-x="252" d="M87.552 493.056q-16.896 19.456-16.896 46.080 0 21.504 12.8 33.792t34.304 12.288q23.552 0 40.448-19.456t16.896-46.080q0-21.504-12.8-33.792t-34.304-12.288q-23.552 0-40.448 19.456zM74.752 366.592q-14.336 25.088-57.344 25.088h-20.48v20.48h92.16q37.888 0 56.832-9.728t27.136-35.328 8.192-77.824v-358.4h-92.16v358.4q0 52.224-14.336 77.312z" />
<glyph unicode="&#x6a;" glyph-name="j" horiz-adv-x="252" d="M87.552 493.056q-16.896 19.456-16.896 46.080 0 21.504 12.8 33.792t34.304 12.288q23.552 0 40.448-19.456t16.896-46.080q0-21.504-12.8-33.792t-34.304-12.288q-23.552 0-40.448 19.456zM65.024-190.976q24.064 52.224 24.064 147.456v332.8q0 52.224-14.336 77.312t-57.344 25.088h-20.48v20.48h92.16q37.888 0 56.832-9.728t27.136-35.328 8.192-77.824v-332.8q0-79.872-16.896-127.488t-57.856-70.144-114.688-22.528v20.48q49.152 0 73.216 52.224z" />
<glyph unicode="&#x6b;" glyph-name="k" horiz-adv-x="821" d="M803 733h-40l-200.5-363 197.5-357h40l-197.5 357zM722.5 733h-40l-200.5-363 197.5-357h40l-197.5 357zM642 733h-40l-200.5-363 197.5-357h40l-197.5 357zM561.5 733h-40l-201-363 198-357h40l-198 357zM262.5 733h36v-720h-36v720zM190.5 733h36v-720h-36v720zM118.5 733h36v-720h-36v720zM46.5 733h36v-720h-36v720z" />
<glyph unicode="&#x6c;" glyph-name="k1" horiz-adv-x="497" d="M288.768 2.56l-122.88 163.84v-235.52h-92.16v552.96q0 52.224-14.336 77.312t-57.344 25.088h-20.48v20.48h92.16q37.888 0 56.832-9.728t27.136-35.328 8.192-77.824v-302.080l128 163.84q26.624 32.768 56.32 49.664t76.8 16.896h30.72v-25.6q-27.648 0-53.248-11.264t-44.032-34.816l-112.64-143.36 128-163.84q29.696-38.912 55.808-58.368t56.832-24.576v-19.456q-22.528-10.24-51.2-10.24-87.040 0-148.48 81.92z" />
<glyph unicode="&#x6d;" glyph-name="l" horiz-adv-x="248" d="M63.488 561.152q-14.336 25.088-57.344 25.088h-20.48v20.48h92.16q37.888 0 56.832-9.728t27.136-35.328 8.192-77.824v-552.96h-92.16v552.96q0 52.224-14.336 77.312z" />
<glyph unicode="&#x6e;" glyph-name="m" horiz-adv-x="804" d="M74.752 366.592q-14.336 25.088-57.344 25.088h-20.48v20.48h92.16q37.888 0 57.856-10.24t29.184-30.72h5.12q21.504 21.504 55.808 36.352t77.312 14.848 73.728-15.872 49.152-55.808q26.624 33.792 68.096 52.736t85.504 18.944q65.536 0 104.448-40.96t38.912-143.36v-307.2h-92.16v307.2q0 73.728-20.48 105.984t-61.44 32.256q-28.672 0-60.416-20.992t-47.104-45.568q5.12-15.36 5.12-71.68v-307.2h-92.16v307.2q0 73.728-20.48 105.984t-61.44 32.256q-54.272 0-102.4-54.272v-391.168h-92.16v358.4q0 52.224-14.336 77.312z" />
<glyph unicode="&#x6f;" glyph-name="o" horiz-adv-x="854" d="M279.5 373q0-59.5 42.25-101.75t101.75-42.25 101.75 42.25 42.25 101.75-42.25 101.75-101.75 42.25-101.75-42.25-42.25-101.75zM243.5 373q0 74.5 52.75 127.25t127.25 52.75 127.25-52.75 52.75-127.25-52.75-127.25-127.25-52.75-127.25 52.75-52.75 127.25zM207.5 373q0-89 63.25-152.5t152.75-63.5 152.75 63.5 63.25 152.5-63.25 152.5-152.75 63.5-152.75-63.5-63.25-152.5zM171.5 373q0 68.5 33.75 126.5t91.75 91.75 126.5 33.75 126.5-33.75 91.75-91.75 33.75-126.5-33.75-126.5-91.75-91.75-126.5-33.75-126.5 33.75-91.75 91.75-33.75 126.5zM135.5 373q0-58.5 22.75-111.75t61.5-92 92-61.5 111.75-22.75 111.75 22.75 92 61.5 61.5 92 22.75 111.75-22.75 111.75-61.5 92-92 61.5-111.75 22.75-111.75-22.75-92-61.5-61.5-92-22.75-111.75zM99.5 373q0 66 25.75 126t69 103.25 103.25 69 126 25.75 126-25.75 103.25-69 69-103.25 25.75-126-25.75-126-69-103.25-103.25-69-126-25.75-126 25.75-103.25 69-69 103.25-25.75 126zM63.5 373q0-73 28.5-139.75t76.75-115 115-76.75 139.75-28.5 139.75 28.5 115 76.75 76.75 115 28.5 139.75-28.5 139.75-76.75 115-115 76.75-139.75 28.5-139.75-28.5-115-76.75-76.75-115-28.5-139.75zM27.5 373q0 80.5 31.5 153.75t84.5 126.25 126.25 84.5 153.75 31.5 153.75-31.5 126.25-84.5 84.5-126.25 31.5-153.75-31.5-153.75-84.5-126.25-126.25-84.5-153.75-31.5-153.75 31.5-126.25 84.5-84.5 126.25-31.5 153.75z" />
<glyph unicode="&#x70;" glyph-name="n" horiz-adv-x="557" d="M74.752 366.592q-14.336 25.088-57.344 25.088h-20.48v20.48h92.16q37.888 0 57.856-10.24t29.184-30.72h5.12q21.504 21.504 55.808 36.352t77.312 14.848q76.8 0 125.44-40.96t48.64-143.36v-307.2h-92.16v307.2q0 71.68-32.256 104.96t-80.384 33.28q-54.272 0-102.4-54.272v-391.168h-92.16v358.4q0 52.224-14.336 77.312z" />
<glyph unicode="&#x71;" glyph-name="o1" horiz-adv-x="543" d="M150.528-46.080q-51.2 33.28-77.824 90.624t-26.624 126.976 26.624 126.976 77.824 90.624 120.832 33.28 120.832-33.28 77.824-90.624 26.624-126.976-26.624-126.976-77.824-90.624-120.832-33.28-120.832 33.28zM338.432-10.752q29.184 27.648 45.056 75.776t15.872 106.496-15.872 106.496-45.056 75.776-67.072 27.648-67.072-27.648-45.056-75.776-15.872-106.496 15.872-106.496 45.056-75.776 67.072-27.648 67.072 27.648z" />
<glyph unicode="&#x72;" glyph-name="p" horiz-adv-x="551" d="M74.752 366.592q-14.336 25.088-57.344 25.088h-20.48v20.48h92.16q38.912 0 58.88-10.752t28.16-35.328h5.12q18.432 23.552 52.224 39.936t86.016 16.384q88.064 0 136.192-71.168t48.128-179.712q0-109.568-49.664-180.224t-144.896-70.656q-38.912 0-68.608 8.192t-59.392 22.528v-215.040h-92.16v552.96q0 52.224-14.336 77.312zM375.296 18.944q31.232 57.344 31.232 152.576 0 94.208-29.696 152.064t-88.064 57.856q-68.608 0-107.52-61.44v-327.68q30.72-14.336 53.248-22.528t44.032-8.192q65.536 0 96.768 57.344z" />
<glyph unicode="&#x73;" glyph-name="q" horiz-adv-x="537" d="M311.296-71.168q-29.696-8.192-68.608-8.192-95.232 0-144.896 70.656t-49.664 180.224 47.616 180.224 136.704 70.656q52.224 0 86.016-16.384t52.224-39.936h5.12l35.84 46.080h51.2v-675.84h-92.16v215.040q-29.696-14.336-59.392-22.528zM317.44-30.208q22.528 8.192 53.248 22.528v327.68q-21.504 28.672-45.056 45.056t-62.464 16.384q-58.368 0-88.064-57.856t-29.696-152.064q0-95.232 31.232-152.576t96.768-57.344q21.504 0 44.032 8.192z" />
<glyph unicode="&#x74;" glyph-name="r" horiz-adv-x="407" d="M67.584 366.592q-14.336 25.088-57.344 25.088h-10.24v20.48h81.92q38.912 0 58.88-10.752t28.16-35.328h5.12q18.432 23.552 49.664 39.936t73.216 16.384q40.96 0 61.44-15.36 17.408-13.312 35.84-46.080l-40.96-30.72q-11.264 15.36-32.768 23.040t-49.152 7.68q-30.72 0-56.32-13.824t-40.96-37.376v-378.88h-92.16v358.4q0 52.224-14.336 77.312z" />
<glyph unicode="&#x75;" glyph-name="s" horiz-adv-x="457" d="M75.776-38.4q-17.408 17.408-21.504 39.424t-4.096 68.096h20.48q9.216-51.2 44.544-79.36t98.816-28.16q56.32 0 84.48 19.456t28.16 52.224q0 29.696-22.016 51.2t-70.144 40.96l-61.44 25.6q-61.44 24.576-92.16 57.344t-30.72 80.896q0 62.464 47.104 97.792t121.856 35.328q112.64 0 153.6-40.96 17.408-17.408 21.504-38.912t4.096-68.608h-20.48q-8.192 51.2-43.008 79.36t-95.232 28.16q-48.128 0-75.264-19.968t-27.136-51.712q0-53.248 81.92-87.040l61.44-25.6q69.632-28.672 101.376-60.928t31.744-82.432q0-62.464-50.176-97.792t-129.024-35.328q-117.76 0-158.72 40.96z" />
<glyph unicode="&#x76;" glyph-name="t" horiz-adv-x="346" d="M125.952-46.592q-32.768 32.768-32.768 100.352v317.44h-71.68v40.96h71.68v92.16l51.2 61.44h40.96v-153.6h122.88v-40.96h-122.88v-317.44q0-92.16 71.68-92.16 24.576 0 41.472 5.12t35.328 15.36l10.24-20.48q-23.552-17.408-52.224-29.184t-75.776-11.776q-57.344 0-90.112 32.768z" />
<glyph unicode="&#x77;" glyph-name="u" horiz-adv-x="548" d="M123.392-38.4q-48.64 40.96-48.64 143.36v184.32q0 52.224-14.336 77.312t-57.344 25.088h-10.24v20.48h81.92q37.888 0 56.832-9.728t27.136-35.328 8.192-77.824v-184.32q0-71.68 32.256-104.96t80.384-33.28q54.272 0 102.4 54.272v391.168h92.16v-481.28h-51.2l-35.84 40.96h-5.12q-21.504-21.504-55.808-36.352t-77.312-14.848q-76.8 0-125.44 40.96z" />
<glyph unicode="&#x78;" glyph-name="v" horiz-adv-x="509" d="M54.272 374.784q-22.528 23.040-59.392 25.088v20.48q5.12 0 14.848 1.024t19.968 1.024q54.272 0 98.304-27.136t75.776-100.864l92.16-220.16 143.36 337.92h51.2l-209.92-491.52h-20.48l-158.72 373.76q-24.576 57.344-47.104 80.384z" />
<glyph unicode="&#x79;" glyph-name="w" horiz-adv-x="767" d="M55.808 374.784q-23.040 23.040-60.928 25.088v20.48q5.12 0 15.36 1.024t20.48 1.024q55.296 0 97.792-28.16t71.168-99.84l87.040-215.040 87.040 220.16q-24.576 54.272-46.592 76.288t-55.808 24.064v20.48q5.12 0 15.36 1.024t20.48 1.024q55.296 0 97.792-28.16t71.168-99.84l87.040-215.040 133.12 332.8h51.2l-199.68-491.52h-20.48l-128 317.44-128-317.44h-20.48l-148.48 373.76q-23.552 57.344-46.592 80.384z" />
<glyph unicode="&#x7a;" glyph-name="x" horiz-adv-x="500" d="M113.664 309.76q-43.008 74.752-105.472 81.92v20.48h87.040q33.792 0 63.488-21.504t52.224-60.416l63.488-107.52 133.12 189.44h51.2l-163.84-230.4 89.088-148.48q41.984-73.728 110.592-81.92v-20.48h-92.16q-33.792 0-63.488 21.504t-52.224 60.416l-63.488 107.52-133.12-189.44h-51.2l163.84 230.4z" />
<glyph unicode="&#x7b;" glyph-name="y" horiz-adv-x="526" d="M189.952-220.16q32.256 23.040 55.808 84.48l20.48 56.32-163.84 399.36q-28.672 73.728-112.64 81.92v20.48h87.040q89.088 0 122.88-81.92l116.736-283.648 129.024 355.328h51.2l-199.68-547.84q-29.696-80.896-65.536-109.568t-93.184-28.672h-30.72v30.72q50.176 0 82.432 23.040z" />
<glyph unicode="&#x7c;" glyph-name="z" horiz-adv-x="477" d="M311.296 371.2h-117.76q-63.488 0-95.744-24.064t-32.256-68.096h-20.48v51.2q0 81.92 87.040 81.92h312.32l-276.48-440.32h276.48v-40.96h-399.36v19.456z" />
<glyph unicode="&#x7406;" glyph-name="uni7406" d="M512 690.688v-16.384h129.024l131.072 2.048v6.144l2.048 8.192h86.016l2.048-190.464q0-192.512-4.096-208.896t-12.288-28.672-18.432-20.48q-10.24-6.144-18.432-10.24-10.24-4.096-22.528-4.096h-14.336v32.768h-90.112v-133.12h182.272v-18.432l-2.048-18.432-90.112-2.048h-90.112v-36.864q0-34.816-2.048-51.2-2.048-14.336-6.144-26.624-4.096-10.24-8.192-16.384t-4.096-8.192q0-4.096 131.072-4.096h129.024v-36.864h-575.488v36.864h256v143.36h-94.208q-96.256 0-100.352 2.048-4.096 0-4.096 18.432v18.432h198.656v133.12h-106.496l-8.192-10.24q-12.288-10.24-22.528-14.336-10.24-6.144-26.624-6.144l-16.384-2.048v462.848h90.112zM513.024 449.024q-1.024-2.048-1.024-75.776v-71.68h90.112v149.504h-43.008q-45.056 0-46.080-2.048zM684.032 449.024q-2.048-2.048-2.048-75.776v-71.68h90.112v147.456h-43.008q-43.008 2.048-45.056 0zM313.344 612.864l49.152-2.048v-18.432l-2.048-18.432-30.72-2.048h-32.768v-182.272h65.536v-18.432l-2.048-20.48h-63.488v-135.168q0-135.168-4.096-151.552-2.048-14.336-8.192-26.624t-5.12-13.312 41.984-1.024h40.96v-36.864h-239.616v36.864h43.008l40.96 2.048v325.632h-83.968v38.912h83.968v182.272h-83.968v38.912l43.008 2.048h69.632q28.672 2.048 77.824 0zM512 487.936h90.112v149.504h-90.112v-149.504zM681.984 637.44v-149.504h45.056l45.056 2.048v145.408l-45.056 2.048h-45.056z" />
<glyph unicode="&#x7ad9;" glyph-name="uni7AD9" d="M749.568 733.696v-200.704h182.272v-40.96h-182.272v-75.776q0-75.776-4.096-92.16-2.048-16.384-8.192-28.672t-10.24-16.384l-4.096-6.144h94.208v18.432h88.064v-169.984q0-172.032-2.048-186.368-4.096-16.384-8.192-26.624-6.144-12.288-14.336-20.48-8.192-10.24-20.48-16.384t-26.624-6.144l-16.384-2.048v81.92h-223.232l-2.048-6.144-4.096-18.432q-4.096-12.288-10.24-22.528-8.192-10.24-14.336-16.384t-18.432-12.288-26.624-6.144h-14.336l2.048 215.040v212.992h88.064v-18.432h67.584v460.8h88.064zM594.944 230.912q-1.024-3.072-1.024-123.904v-120.832h223.232v247.808h-110.592q-110.592 0-111.616-3.072zM368.64 725.504v-47.104q0-47.104-5.12-60.416t-13.312-25.6q-10.24-8.192-22.528-14.336t-28.672-6.144l-18.432-2.048v75.776q0 73.728 1.024 76.8t44.032 3.072h43.008zM444.416 418.304v-6.144q0-6.144-16.384-155.648l-14.336-149.504-10.24-20.48q-8.192-16.384-20.48-33.792t-26.624-27.648q-16.384-12.288-30.72-20.48t-25.6-5.12-11.264 5.12l10.24 16.384q8.192 14.336 16.384 32.768t14.336 36.864q6.144 20.48 14.336 163.84 8.192 145.408 8.192 153.6v10.24h92.16zM139.264 300.544q-8.192 13.312-15.36 20.48t-7.168 15.36 2.048 8.192 28.672-26.624 47.104-49.152q18.432-24.576 34.816-47.104 16.384-24.576 26.624-47.104 12.288-22.528 18.432-43.008 6.144-18.432 10.24-34.816 2.048-18.432 0-20.48l-40.96-16.384q-38.912-14.336-38.912-12.288-2.048 0-8.192 38.912t-14.336 75.776q-8.192 40.96-14.336 61.44t-14.336 43.008q-6.144 20.48-14.336 33.792zM450.56 502.272h-296.96l-2.048 20.48v18.432h299.008v-38.912zM430.080-62.976h-276.48l-2.048 20.48v18.432h278.528v-38.912z" />
<glyph unicode="&#x7ba1;" glyph-name="uni7BA1" d="M308.224 772.609l-4.096-10.24q-2.048-4.096-12.288-28.672-8.192-20.48-8.192-21.504t104.448-1.024h104.448v-51.2h-104.448q-106.496 0-98.304-2.048 0-2.048 9.216-5.119t15.359-3.072q20.48-8.192 36.864-16.384 20.48-10.24 36.864-20.48 18.432-14.336 43.008-38.912l26.624-24.576-55.296-2.048q-55.296 0-55.296 2.048-2.048 4.096-14.336 22.528-12.288 22.528-24.576 34.816-14.336 14.336-28.672 20.48-12.288 6.144-22.528 8.192l-10.24 2.048-18.432-18.432q-20.48-20.48-38.912-32.768-20.48-12.288-38.912-22.528-18.432-8.192-38.912-14.336t-39.936-6.144-19.456 2.048 14.336 20.48q18.432 20.48 32.768 38.912 16.384 20.48 34.816 49.152t36.864 73.728l20.48 45.056h116.736zM787.456 772.609l-12.288-28.672q-14.336-28.672-14.336-30.72t106.496-2.048h104.448v-51.2h-212.992l49.152-16.384q16.384-6.144 30.72-14.336 18.432-10.24 32.768-20.48t28.672-24.576q16.384-14.336 24.576-24.576l10.24-12.288h-110.592l-6.144 14.336q-8.192 14.336-20.48 30.72-10.24 14.336-22.528 24.576-12.288 8.192-24.576 14.336-14.336 6.144-20.48 6.144t-28.672-22.528q-20.48-20.48-34.816-28.672-16.384-10.24-34.816-20.48-18.432-8.192-40.96-16.384-20.48-6.144-39.936-6.144t-19.456 2.048 14.336 18.432q10.24 16.384 30.72 40.96 18.432 24.576 32.768 45.056t20.48 34.816q8.192 12.288 22.528 51.2l16.384 36.864h118.784zM549.888 529.921q0-3.072-6.144-21.504t-8.192-22.528l26.624-4.096h274.432v12.288h59.392l59.392-2.048-2.048-28.672q0-28.672-4.096-47.104-4.096-16.384-12.288-30.72-6.144-14.336-20.48-28.672t-25.602-19.456-31.744-7.168h-22.528v100.352h-583.68l-8.192-22.528q-6.144-22.528-15.359-35.842t-19.456-21.504-22.528-14.336-32.768-6.144h-18.432v163.84h116.736v-12.288h219.136v24.576q0 24.576 2.048 26.624h38.912q36.864 0 36.864-3.072zM388.096 416.257v-14.336h133.12q135.168 0 136.192 4.096t58.368 4.096l59.392-2.048v-43.008q0-40.96-2.048-61.44-2.048-18.432-8.192-36.864-6.144-16.384-12.288-26.624-8.192-12.288-18.432-22.528t-22.528-14.336q-14.336-6.144-34.816-6.144h-18.432l-2.048 6.144v8.192h-268.288v-65.536h135.168q133.12 0 133.12 5.119t59.392 5.119h61.44l-2.048-75.776q0-51.2-1.024-66.56t-5.119-27.648q-4.096-16.384-12.288-30.72-6.144-16.384-18.432-27.648t-26.624-18.432-34.816-7.168h-20.48v53.248l-137.216-2.048h-137.216l-2.048-10.24q-2.048-8.192-10.24-22.528-6.144-14.336-19.456-26.624t-27.648-18.432q-14.336-8.192-32.768-8.192h-18.432v548.864h116.736zM388.096 262.657h268.288v88.064h-268.288v-88.064zM388.096 6.657h268.288v88.064h-268.288v-88.064z" />
<glyph unicode="&#x7cfb;" glyph-name="uni7CFB" d="M212.992 696.832q14.336-6.144 29.696-9.216t293.888-5.12h276.48v-45.056h-126.976l-126.976-2.048-108.544-88.064q-47.104-38.912-76.8-64.512l-29.696-25.6q0-2.048 86.016 2.048l88.064 4.096 110.592 65.536q110.592 67.584 112.64 65.536 2.048 0 30.72-32.768t25.6-35.84-72.704-44.032q-57.344-32.768-169.984-98.304-126.976-75.776-145.408-86.016-45.056-26.624-40.96-26.624t65.536 6.144q77.824 6.144 174.080 16.384 108.544 10.24 112.64 10.24 2.048 0-6.144 8.192-6.144 6.144-28.672 22.528-22.528 14.336-34.816 18.432-14.336 6.144-14.336 12.288v8.192h14.336q14.336 0 34.816-4.096 24.576-4.096 47.104-10.24 22.528-8.192 45.056-18.432 20.48-10.24 34.816-22.528 16.384-10.24 28.672-22.528 14.336-12.288 24.576-26.624 12.288-12.288 8.192-16.384t-45.056-24.576q-38.912-20.48-40.96-20.48l-22.528 45.056-8.192 10.24-12.288-2.048q-69.632-6.144-92.16-8.192-77.824-8.192-86.016-8.192l-4.096-2.048v-133.12q-2.048-86.016-3.072-110.592t-3.072-34.816q-4.096-16.384-10.24-26.624-6.144-12.288-16.384-24.576-12.288-12.288-25.6-18.432t-25.6-6.144h-14.336v346.112h-6.144q-4.096 0-63.488-6.144-79.872-8.192-92.16-8.192l-32.768-4.096-22.528-12.288q-24.576-14.336-26.624-14.336t-26.624 30.72-26.624 32.768l135.168 81.92q59.392 34.816 96.256 57.344l36.864 22.528-149.504-4.096-34.816 24.576q-34.816 24.576-35.84 26.624t101.376 88.064l102.4 86.016-71.68 2.048q-71.68 2.048-87.040 7.168t-25.6 11.264-24.576 18.432q-14.336 10.24-14.336 20.48t2.048 10.24q4.096-4.096 14.336-8.192zM364.544 150.016v-55.296q-2.048-55.296-6.144-69.632-4.096-12.288-11.264-26.624t-17.408-24.576-20.48-15.36-24.576-5.12h-16.384v196.608h96.256zM759.808 150.016v-51.2q0-47.104-4.096-65.536-4.096-14.336-12.288-32.768t-18.432-28.672q-12.288-10.24-20.48-14.336t-24.576-4.096h-16.384v196.608h96.256z" />
<glyph unicode="&#x7edf;" glyph-name="uni7EDF" d="M302.080 723.456q37.888 0 38.912-1.024t-5.12-31.744q-4.096-24.576-14.336-61.44-8.192-28.672-18.432-59.392-8.192-22.528-20.48-53.248-12.288-24.576-22.528-40.96-10.24-18.432-20.48-31.744t-26.624-31.744q-18.432-18.432-29.696-25.6t-11.264-8.192 57.344-1.024h57.344l4.096 14.336q4.096 12.288 10.24 36.864t10.24 55.296q4.096 20.48 8.192 38.912v6.144h40.96q38.912 0 38.912-5.12t-10.24-50.176q-12.288-51.2-22.528-92.16-12.288-40.96-22.528-71.68-8.192-24.576-20.48-51.2t-22.528-46.080-24.576-44.032q-16.384-24.576-32.768-40.96-18.432-16.384-32.768-26.624l-16.384-10.24h184.32v-38.912h-249.856l-2.048 18.432q-2.048 20.48 1.024 20.48t13.312 10.24q10.24 8.192 24.576 28.672 16.384 18.432 32.768 47.104 12.288 18.432 32.768 61.44 20.48 40.96 30.72 67.584l10.24 30.72q0 2.048-65.536 2.048l-67.584 2.048v18.432l-2.048 18.432 20.48 36.864q22.528 38.912 30.72 59.392 10.24 20.48 20.48 45.056 8.192 24.576 18.432 63.488 12.288 40.96 22.528 88.064 12.288 49.152 12.288 51.2 2.048 2.048 39.936 2.048zM708.608 723.456v-26.624q0-24.576-4.096-40.96-4.096-14.336-9.216-23.552t-13.312-19.456q-12.288-10.24-20.48-14.336-12.288-6.144-26.624-6.144h-14.336v131.072h88.064zM950.272 588.288v-38.912h-124.928l-124.928-2.048-12.288-16.384q-14.336-18.432-28.672-38.912-14.336-18.432-40.96-45.056t-51.2-49.152q-26.624-22.528-53.248-40.96t-26.624-19.456 149.504-1.024h80.896t51.2 1.024l17.408 1.024q0 2.048-16.384 22.528-16.384 18.432-38.912 43.008-20.48 22.528-20.48 24.576t14.336 18.432l16.384 16.384 26.624-18.432q26.624-18.432 51.2-40.96 24.576-20.48 51.2-49.152 26.624-26.624 38.912-40.96l10.24-12.288-34.816-34.816q-34.816-36.864-36.864-34.816 0 2.048-16.384 32.768l-14.336 30.72h-79.872v-291.84t-2.048-41.984q-4.096-10.24-8.192-22.528-6.144-10.24-6.144-11.264t59.392-1.024h59.392l4.096 16.384q4.096 16.384 9.216 27.648t14.336 20.48 21.504 14.336 24.576 5.12h14.336v-126.976l-12.288-1.024t-30.72-1.024q-43.008-2.048-43.008 2.048t-96.256 4.096h-94.208v407.552h-61.44l-2.048-79.872q-2.048-81.92-6.144-104.448t-10.24-40.96q-6.144-16.384-18.432-43.008t-28.672-47.104q-14.336-20.48-34.816-38.912-20.48-20.48-40.96-34.816l-40.96-24.576-18.432-8.192q-2.048 0-2.048 16.384v16.384h-145.408l-145.408 2.048v36.864h315.392v-20.48l12.288 10.24q14.336 12.288 26.624 30.72 16.384 20.48 24.576 38.912 10.24 20.48 16.384 45.056l6.144 24.576 2.048 110.592v110.592h-86.016v36.864l38.912 40.96q36.864 34.816 59.392 63.488 16.384 22.528 30.72 40.96 12.288 18.432 24.576 43.008 14.336 24.576 14.336 26.624t-83.968 2.048h-83.968v38.912h536.576z" />
<glyph unicode="&#x7fa4;" glyph-name="uni7FA4" d="M931.495 751.326q47.327-12.907 47.327-15.059t-8.605-19.361q-8.605-15.059-30.118-36.57-23.664-23.664-45.177-43.025-19.361-12.907-49.479-34.42-25.816-15.059-26.891-15.059t-3.227 4.302 8.605 21.513l21.513 38.723q12.907 23.664 17.209 38.723 6.454 15.059 10.757 34.42t4.302 30.118l4.302 10.757zM699.161 723.36q25.816-12.907 43.025-25.816 19.361-12.907 35.495-29.041t23.664-30.118 4.302-17.209-44.1-26.891l-43.025-23.664-4.302 21.513q-4.302 21.513-8.605 32.268t-15.059 30.118q-10.757 21.513-21.513 36.57t-29.041 32.268-18.286 21.513v4.302q2.152 2.152 27.966-6.454t49.479-19.361zM557.177 740.571v-185.009h23.664v-38.723h-10.757l-10.757-2.152-2.152-40.875q-2.152-40.875-6.454-58.084-4.302-15.059-12.907-36.57-8.605-19.361-21.513-32.268-10.757-10.757-19.361-15.059t-21.513-4.302l-12.907 2.152v30.118h-157.041l-10.757-19.361q-8.605-17.209-21.513-38.723l-12.907-17.209 32.268-2.152h32.268l2.152-10.757v-12.907h135.529v23.664h92.504v-146.286q-2.152-94.654-2.152-123.697t-4.302-39.798q-4.302-19.361-10.757-36.57-10.757-19.361-19.361-27.966-6.454-8.605-21.513-15.059-12.907-6.454-23.664-4.302h-15.059v58.084h-144.134l-8.605-12.907q-6.454-12.907-17.209-24.739t-22.589-17.209-24.739-3.227h-12.907l2.152 176.402q2.152 174.252-1.075 174.252t-3.227-2.152-23.664-27.966-50.554-49.479-52.707-43.025q-27.966-21.513-58.084-43.025-34.42-21.513-36.57-20.436t-4.302 5.377q0 2.152 27.966 27.966t51.63 51.63q27.966 30.118 40.875 47.327 19.361 23.664 36.57 49.479 17.209 27.966 30.118 53.782 17.209 30.118 23.664 47.327l10.757 21.513q0 2.152-27.966 2.152h-30.118v40.875h75.293l8.605 27.966q8.605 25.816 15.059 51.63 6.454 23.664 6.454 30.118v6.454h-191.461v36.57l200.068 4.302 2.152 19.361q2.152 17.209 4.302 58.084l2.152 38.723h-122.622v40.875h299.024v12.907q0 10.757 1.075 12.907t46.252 0h47.327zM380.775 673.881v-8.605q-2.152-6.454-4.302-38.723-2.152-27.966-6.454-49.479l-2.152-19.361q2.152-2.152 47.327-2.152h47.327v118.318h-81.748zM359.261 516.84l-2.152-10.757q-4.302-15.059-8.605-27.966-4.302-17.209-15.059-47.327-8.605-25.816-8.605-27.966t68.841-2.152h68.841l-2.152 58.084v55.932l-51.63 2.152h-49.479zM460.37 217.815q-2.152 2.152-67.764 2.152t-66.689-3.227-1.075-117.243l-2.152-114.016h135.529l2.152 116.168q2.152 114.016 0 116.168zM976.672 559.865v-38.723l-66.689-2.152h-68.841v-135.529h135.529v-40.875h-66.689l-66.689-2.152v-154.891h180.706v-43.025h-182.857v-81.748q0-81.748-2.152-98.957-4.302-17.209-12.907-34.42t-17.209-29.041-17.209-18.286q-10.757-6.454-25.816-6.454h-17.209v268.906h-163.495v43.025h163.495v157.041h-118.318l2.152 19.361v21.513h116.168v135.529h-55.932q-53.782 0-58.084 2.152-4.302 0-4.302 19.361v19.361h346.352z" />
<glyph unicode="&#xff21;" glyph-name="uniFF21" d="M713.728-47.104q-48.128 27.136-76.8 105.984l-25.6 66.56h-286.72l-81.92-194.56h-46.080l286.72 675.84h30.72l225.28-547.84q25.6-59.392 48.128-81.408t64.512-26.112v-20.48q-18.432-5.12-40.96-5.12-49.152 0-97.28 27.136zM590.848 166.4l-122.88 296.96-128-296.96h250.88z" />
<glyph unicode="&#xff22;" glyph-name="uniFF22" d="M313.344 561.152q-14.336 25.088-57.344 25.088h-20.48v20.48h266.24q111.616 0 194.048-36.864t82.432-142.336q0-48.128-32.768-87.040t-100.352-61.44q94.208-15.36 131.584-55.808t37.376-108.032q0-103.424-81.408-143.872t-200.192-40.448h-204.8v552.96q0 52.224-14.336 77.312zM596.48 310.272q37.376 15.872 60.928 47.104t23.552 75.264q0 46.080-27.648 77.312t-70.144 46.080-86.528 14.848q-35.84 0-76.8-10.24v-266.24h97.28q41.984 0 79.36 15.872zM660.992 3.584q50.688 36.864 50.688 106.496t-49.664 106.496-144.896 36.864h-97.28v-272.384q49.152-14.336 97.28-14.336 93.184 0 143.872 36.864z" />
<glyph unicode="&#xff23;" glyph-name="uniFF23" d="M375.296-43.52q-72.192 46.080-111.104 125.44t-38.912 176.64q0 100.352 42.496 185.344t115.712 134.144 159.232 49.152q81.92 0 143.872-23.040t91.648-58.88q17.408-21.504 21.504-56.832t4.096-96.768h-20.48q-19.456 99.328-71.68 146.944t-138.24 47.616q-110.592 0-178.176-77.824t-67.584-249.856q0-80.896 26.112-150.528t81.408-113.152 138.24-43.52q74.752 0 130.56 35.84t99.84 107.52l20.48-15.36q-47.104-92.16-116.224-130.56t-165.376-38.4q-95.232 0-167.424 46.080z" />
<glyph unicode="&#xff24;" glyph-name="uniFF24" d="M267.264 561.152q-14.336 25.088-57.344 25.088h-20.48v20.48h268.288q198.656 0 300.544-88.064t101.888-245.76q0-101.376-43.008-178.688t-127.488-120.32-205.312-43.008h-202.752v552.96q0 52.224-14.336 77.312zM617.984 4.096q60.928 37.376 95.744 105.472t34.816 159.232q0 89.088-34.304 157.696t-95.744 106.496-139.264 37.888q-49.152 0-102.4-16.384v-574.464q57.344-13.312 104.448-13.312 75.776 0 136.704 37.376z" />
<glyph unicode="&#xff25;" glyph-name="uniFF25" d="M323.584 561.152q-14.336 25.088-57.344 25.088h-20.48v20.48h436.224q87.040 0 87.040-81.92v-76.8h-20.48q0 117.76-128 117.76h-190.464v-266.24h276.48v-40.96h-276.48v-286.72h179.2q70.656 0 110.592 25.6t63.488 87.040l20.48-5.12-35.84-97.28q-18.432-51.2-76.8-51.2h-353.28v552.96q0 52.224-14.336 77.312z" />
<glyph unicode="&#xff26;" glyph-name="uniFF26" d="M354.304 561.152q-14.336 25.088-57.344 25.088h-20.48v20.48h408.576q87.040 0 87.040-81.92v-76.8h-20.48q0 117.76-128 117.76h-162.816v-271.36h231.424v-40.96h-231.424v-322.56h-92.16v552.96q0 52.224-14.336 77.312z" />
<glyph unicode="&#xff27;" glyph-name="uniFF27" d="M354.816-40.448q-79.36 49.152-123.904 133.632t-44.544 185.856q0 97.28 38.912 176.64t111.104 125.44 167.424 46.080q88.064 0 152.064-23.040t93.696-58.88q16.384-20.48 20.992-54.272t4.608-83.968h-20.48q-19.456 90.112-73.728 134.656t-146.432 44.544q-82.944 0-138.24-43.52t-81.408-113.152-26.112-150.528q0-173.056 67.584-250.368t178.176-77.312q52.224 0 89.088 9.216t69.632 26.624v178.176q0 34.816 11.264 60.416t48.64 42.496 109.056 16.896v-20.48q-46.080 0-61.44-23.552t-15.36-73.728v-192.512q-55.296-33.792-115.712-49.152t-135.168-15.36q-100.352 0-179.712 49.152z" />
<glyph unicode="&#xff28;" glyph-name="uniFF28" d="M264.192 561.152q-14.336 25.088-57.344 25.088h-20.48v20.48h92.16q37.888 0 56.832-9.728t27.136-35.328 8.192-77.824v-184.32h307.2v307.2h92.16v-552.96q0-52.224 14.336-77.312t57.344-25.088h20.48v-20.48h-92.16q-37.888 0-56.832 9.728t-27.136 35.328-8.192 77.824v204.8h-307.2v-327.68h-92.16v552.96q0 52.224-14.336 77.312z" />
<glyph unicode="&#xff29;" glyph-name="uniFF29" d="M467.456-59.392q-18.944 9.728-27.136 35.328t-8.192 77.824v552.96h92.16v-552.96q0-52.224 14.336-77.312t57.344-25.088h20.48v-20.48h-92.16q-37.888 0-56.832 9.728z" />
<glyph unicode="&#xff2a;" glyph-name="uniFF2A" d="M502.272-136.704q24.064 52.224 24.064 147.456v595.968h92.16v-595.968q0-79.872-16.896-127.488t-57.856-70.144-114.688-22.528v20.48q49.152 0 73.216 52.224z" />
<glyph unicode="&#xff2b;" glyph-name="uniFF2B" d="M700.416-53.248q-52.224 26.112-119.808 96.768l-215.040 225.28v-337.92h-92.16v552.96q0 52.224-14.336 77.312t-57.344 25.088h-20.48v20.48h92.16q37.888 0 56.832-9.728t27.136-35.328 8.192-77.824v-199.68l215.040 215.040 20.48 21.504q28.672 29.696 48.128 46.592t46.080 28.16 59.392 11.264h51.2v-25.6q-43.008 0-74.752-14.848t-73.728-56.832l-199.68-199.68 235.52-245.76q45.056-46.080 91.136-77.312t82.944-36.352v-19.456q-30.72-10.24-66.56-10.24-48.128 0-100.352 26.112z" />
<glyph unicode="&#xff2c;" glyph-name="uniFF2C" d="M328.704 561.152q-14.336 25.088-57.344 25.088h-20.48v20.48h92.16q37.888 0 56.832-9.728t27.136-35.328 8.192-77.824v-512h363.52v-40.96h-455.68v552.96q0 52.224-14.336 77.312z" />
<glyph unicode="&#xff2d;" glyph-name="uniFF2D" d="M796.672-92.672q-40.96 22.528-57.856 70.144t-16.896 127.488v394.24l-256-568.32h-20.48l-266.24 578.56v-578.56h-40.96v675.84h97.28l245.76-532.48 240.64 532.48h92.16v-501.76q0-95.232 24.064-147.456t73.216-52.224v-20.48q-73.728 0-114.688 22.528z" />
<glyph unicode="&#xff2e;" glyph-name="uniFF2E" d="M365.568-69.12h-40.96v552.96q0 49.152-20.992 75.776t-71.168 26.624h-10.24v20.48h66.56q47.104 0 79.872-15.36t58.368-46.080l358.4-445.44v506.88h40.96v-686.080h-20.48l-440.32 547.84v-537.6z" />
<glyph unicode="&#xff2f;" glyph-name="uniFF2F" d="M356.864-42.496q-72.192 47.104-111.104 129.024t-38.912 182.272 38.912 182.272 111.104 129.024 167.424 47.104 167.424-47.104 111.104-129.024 38.912-182.272-38.912-182.272-111.104-129.024-167.424-47.104-167.424 47.104zM639.488-9.728q48.64 38.912 74.24 110.080t25.6 168.448-25.6 168.448-74.24 110.080-115.2 38.912-115.2-38.912-74.24-110.080-25.6-168.448 25.6-168.448 74.24-110.080 115.2-38.912 115.2 38.912z" />
<glyph unicode="&#xff30;" glyph-name="uniFF30" d="M340.992 561.152q-14.336 25.088-57.344 25.088h-20.48v20.48h266.24q98.304 0 177.152-41.984t78.848-162.816q0-79.872-40.96-122.88t-91.648-57.344-92.672-14.336h-112.64v-276.48h-92.16v552.96q0 52.224-14.336 77.312zM593.92 260.096q36.864 16.896 62.976 53.76t26.112 93.184-26.112 93.184-62.976 53.76-69.632 16.896q-35.84 0-76.8-10.24v-307.2q40.96-10.24 76.8-10.24 32.768 0 69.632 16.896z" />
<glyph unicode="&#xff31;" glyph-name="uniFF31" d="M620.544-232.96q-104.448 46.080-193.536 156.672-104.448 30.72-164.864 124.928t-60.416 220.16q0 100.352 38.912 182.272t111.104 129.024 167.424 47.104 167.424-47.104 111.104-129.024 38.912-182.272q0-129.024-62.976-223.744t-170.496-123.392q15.36-49.152 56.32-90.624t92.16-65.536 95.232-24.064v-20.48q-121.856 0-226.304 46.080zM634.368-9.728q48.64 38.912 74.24 110.080t25.6 168.448-25.6 168.448-74.24 110.080-115.2 38.912-115.2-38.912-74.24-110.080-25.6-168.448 25.6-168.448 74.24-110.080 115.2-38.912 115.2 38.912z" />
<glyph unicode="&#xff32;" glyph-name="uniFF32" d="M670.208-47.104q-40.448 32.256-89.6 116.224l-102.4 174.080h-71.68v-312.32h-92.16v552.96q0 52.224-14.336 77.312t-57.344 25.088h-20.48v20.48h266.24q97.28 0 176.64-38.4t79.36-145.92q0-136.192-163.84-174.080l107.52-179.2q37.888-63.488 68.096-88.576t70.144-29.184v-20.48q-9.216-4.096-26.112-7.168t-35.328-3.072q-54.272 0-94.72 32.256zM552.448 294.4q37.376 15.36 63.488 48.128t26.112 79.872q0 50.176-26.112 83.456t-63.488 49.152-69.12 15.872q-35.84 0-76.8-10.24v-271.36q40.96-10.24 76.8-10.24 31.744 0 69.12 15.36z" />
<glyph unicode="&#xff33;" glyph-name="uniFF33" d="M423.936-71.168q-54.272 15.36-88.576 44.032t-34.304 65.536v109.568h18.432q17.408-102.4 67.584-147.968t138.24-45.568q55.296 0 94.72 27.648t39.424 76.8q0 43.008-26.624 74.752t-86.016 66.56l-125.952 74.752q-65.536 38.912-92.672 78.848t-27.136 97.28q0 78.848 54.784 126.464t143.872 47.616q52.224 0 103.424-14.848t84.48-43.008 33.28-65.024v-109.568h-18.432q-17.408 102.4-66.048 146.944t-136.704 44.544q-47.104 0-82.944-28.672t-35.84-74.752q0-41.984 26.112-69.632t87.552-64.512l125.952-74.752q69.632-41.984 98.304-77.824t28.672-91.136q0-86.016-57.344-137.728t-155.648-51.712q-56.32 0-110.592 15.36z" />
<glyph unicode="&#xff34;" glyph-name="uniFF34" d="M391.168 565.76q-128 0-128-117.76h-20.48v76.8q0 81.92 87.040 81.92h476.16v-40.96h-230.4v-634.88h-92.16v634.88h-92.16z" />
<glyph unicode="&#xff35;" glyph-name="uniFF35" d="M414.72-46.080q-57.344 33.28-81.408 98.816t-24.064 169.984v261.12q0 52.224-14.336 77.312t-57.344 25.088h-20.48v20.48h92.16q37.888 0 56.832-9.728t27.136-35.328 8.192-77.824v-291.84q0-113.664 41.984-172.032t139.264-58.368q77.824 0 123.392 27.648t65.024 83.968 19.456 149.504v384h40.96v-384q0-106.496-22.528-171.52t-79.36-97.792-159.232-32.768q-98.304 0-155.648 33.28z" />
<glyph unicode="&#xff36;" glyph-name="uniFF36" d="M257.024 568.32q-22.528 22.016-64.512 26.112v20.48q5.12 0 14.848 1.024t19.968 1.024q51.2 0 98.304-26.112t79.872-103.936l175.104-412.672 60.416 140.288q43.008 99.328 164.864 392.192h49.152l-293.888-686.080h-18.432l-237.568 566.272q-25.6 59.392-48.128 81.408z" />
<glyph unicode="&#xff37;" glyph-name="uniFF37" d="M150.016 568.32q-23.040 22.016-69.12 26.112v20.48q5.12 0 14.848 1.024t19.968 1.024q56.32 0 101.888-25.6t73.216-104.448l137.216-395.264 109.568 324.608-24.576 70.656q-20.48 59.392-43.52 81.408t-69.12 26.112v20.48q5.12 0 14.848 1.024t19.968 1.024q56.32 0 101.888-25.6t73.216-104.448l137.216-395.264 175.104 515.072h44.032l-234.496-686.080h-20.48l-151.552 431.104-147.456-431.104h-20.48l-198.656 566.272q-20.48 59.392-43.52 81.408z" />
<glyph unicode="&#xff38;" glyph-name="uniFF38" d="M334.848 473.6q-24.576 35.84-43.008 56.832t-48.128 37.376-72.704 18.432v20.48h122.88q45.056 0 75.776-29.184t67.584-83.456l102.4-153.6 204.8 266.24h51.2l-230.4-302.080 163.84-240.64q31.744-47.104 68.096-78.336t80.384-34.304v-20.48h-107.52q-44.032 0-77.824 31.232t-65.536 81.408l-122.88 184.32-230.4-296.96h-51.2l256 332.8z" />
<glyph unicode="&#xff39;" glyph-name="uniFF39" d="M345.088 473.6q-26.624 37.888-45.056 59.392t-43.52 36.352-59.904 16.896v20.48h92.16q51.2 0 86.016-30.208t67.584-82.432l148.48-230.4 214.016 343.040h46.080l-239.616-389.12v-286.72h-92.16v279.552z" />
<glyph unicode="&#xff3a;" glyph-name="uniFF3A" d="M667.648 565.76h-245.76q-128 0-128-117.76h-20.48v76.8q0 81.92 87.040 81.92h445.44l-435.2-634.88h419.84v-40.96h-547.84v20.48z" />
<glyph unicode="&#xff41;" glyph-name="uniFF41" d="M414.72-65.536q-33.792 13.824-57.856 45.568t-24.064 83.968q0 77.824 72.192 110.592t188.928 32.768h30.72q0 100.352-27.648 137.216t-79.872 36.864q-46.080 0-73.728-19.456t-38.912-67.584h-46.080q0 34.816 4.096 54.784t21.504 37.376q18.432 18.432 60.928 27.136t92.672 8.704q82.944 0 131.072-44.544t48.128-170.496v-276.48h-51.2l-35.84 46.080h-5.12q-18.432-23.552-54.272-39.936t-89.088-16.384q-32.768 0-66.56 13.824zM583.68-16.896q22.528 16.384 40.96 45.056v138.24h-30.72q-75.776 0-119.808-28.16t-44.032-74.24q0-47.104 28.16-72.192t69.12-25.088q33.792 0 56.32 16.384z" />
<glyph unicode="&#xff42;" glyph-name="uniFF42" d="M506.88-62.976q-33.792 16.384-52.224 39.936h-5.12l-35.84-46.080h-51.2v552.96q0 52.224-14.336 77.312t-57.344 25.088h-20.48v20.48h92.16q37.888 0 56.832-9.728t27.136-35.328 8.192-77.824v-92.16q29.696 14.336 59.392 22.528t68.608 8.192q95.232 0 144.896-70.656t49.664-180.224q0-108.544-48.128-179.712t-136.192-71.168q-52.224 0-86.016 16.384zM650.24 19.456q29.696 57.856 29.696 152.064 0 95.232-31.232 152.576t-96.768 57.344q-21.504 0-44.032-8.192t-53.248-22.528v-327.68q18.432-27.648 43.52-44.544t64-16.896q58.368 0 88.064 57.856z" />
<glyph unicode="&#xff43;" glyph-name="uniFF43" d="M418.304-46.080q-50.688 33.28-75.776 90.112t-25.088 127.488 25.088 127.488 75.776 90.112 124.416 33.28q112.64 0 148.48-35.84 17.408-17.408 21.504-42.496t4.096-90.624h-20.48q-4.096 63.488-39.936 95.744t-93.184 32.256q-73.728 0-111.104-58.368t-37.376-151.552 37.376-151.552 111.104-58.368q52.224 0 86.016 19.968t62.464 61.952l20.48-15.36q-33.792-57.344-79.872-82.432t-109.568-25.088q-73.728 0-124.416 33.28z" />
<glyph unicode="&#xff44;" glyph-name="uniFF44" d="M365.056-8.704q-47.616 70.656-47.616 180.224t49.664 180.224 144.896 70.656q38.912 0 68.608-8.192t59.392-22.528v92.16q0 52.224-14.336 77.312t-57.344 25.088h-20.48v20.48h92.16q37.888 0 56.832-9.728t27.136-35.328 8.192-77.824v-552.96h-51.2l-35.84 46.080h-5.12q-22.528-25.6-52.736-40.96t-85.504-15.36q-89.088 0-136.704 70.656zM595.968-23.040q21.504 15.36 44.032 46.080v327.68q-30.72 14.336-53.248 22.528t-44.032 8.192q-65.536 0-96.768-57.344t-31.232-152.576q0-94.208 29.696-152.064t88.064-57.856q41.984 0 63.488 15.36z" />
<glyph unicode="&#xff45;" glyph-name="uniFF45" d="M416.768-46.080q-48.128 33.28-72.704 90.112t-24.576 127.488q0 69.632 24.576 126.976t71.168 90.624 109.056 33.28q103.424 0 154.112-57.856t50.688-167.424l-2.048-40.96h-310.272q0-86.016 36.864-140.288t101.376-54.272q48.128 0 81.408 20.48t61.952 61.44l20.48-15.36q-33.792-56.32-78.848-81.92t-105.472-25.6q-69.632 0-117.76 33.28zM605.184 334.336q-26.624 47.104-80.896 47.104-30.72 0-55.296-24.064t-38.4-66.048-13.824-94.208h215.040q0 90.112-26.624 137.216z" />
<glyph unicode="&#xff46;" glyph-name="uniFF46" d="M337.92 371.2v40.96h71.68v30.72q0 174.080 179.2 174.080 64.512 0 87.040-15.36 17.408-13.312 35.84-46.080l-30.72-25.6q-30.72 46.080-97.28 46.080-81.92 0-81.92-133.12v-30.72h143.36v-40.96h-143.36v-440.32h-92.16v440.32h-71.68z" />
<glyph unicode="&#xff47;" glyph-name="uniFF47" d="M359.936-236.032q-60.928 37.888-60.928 120.832 0 47.104 31.744 81.92t80.896 51.2q-40.96 22.528-40.96 61.44 0 20.48 9.216 31.744t26.624 24.576q-32.768 16.384-54.784 51.2t-22.016 81.92q0 153.6 194.56 153.6h189.44v-25.6l-66.56-10.24v-5.12q31.744-16.384 51.712-45.568t19.968-67.072q0-153.6-194.56-153.6-107.52 0-107.52-35.84t107.52-35.84q99.328 0 162.304-39.424t62.976-119.296q0-82.944-60.928-120.832t-164.352-37.888-164.352 37.888zM598.528 179.2q28.16 28.16 28.16 89.6 0 58.368-28.16 88.064t-74.24 29.696-74.24-28.16-28.16-89.6 28.16-89.6 74.24-28.16 74.24 28.16zM621.568-203.776q35.84 29.184 35.84 88.576 0 102.4-122.88 117.76l-56.32 5.12q-41.984-16.384-64.512-46.080t-22.528-76.8q0-59.392 35.84-88.576t97.28-29.184 97.28 29.184z" />
<glyph unicode="&#xff48;" glyph-name="uniFF48" d="M356.352 561.152q-14.336 25.088-57.344 25.088h-20.48v20.48h92.16q37.888 0 56.832-9.728t27.136-35.328 8.192-77.824v-112.64q21.504 21.504 55.808 36.352t77.312 14.848q76.8 0 125.44-40.96t48.64-143.36v-307.2h-92.16v307.2q0 71.68-32.256 104.96t-80.384 33.28q-54.272 0-102.4-54.272v-391.168h-92.16v552.96q0 52.224-14.336 77.312z" />
<glyph unicode="&#xff49;" glyph-name="uniFF49" d="M522.752 493.056q-16.896 19.456-16.896 46.080 0 21.504 12.8 33.792t34.304 12.288q23.552 0 40.448-19.456t16.896-46.080q0-21.504-12.8-33.792t-34.304-12.288q-23.552 0-40.448 19.456zM509.952 366.592q-14.336 25.088-57.344 25.088h-20.48v20.48h92.16q37.888 0 56.832-9.728t27.136-35.328 8.192-77.824v-358.4h-92.16v358.4q0 52.224-14.336 77.312z" />
<glyph unicode="&#xff4a;" glyph-name="uniFF4A" d="M524.8 493.056q-16.896 19.456-16.896 46.080 0 21.504 12.8 33.792t34.304 12.288q23.552 0 40.448-19.456t16.896-46.080q0-21.504-12.8-33.792t-34.304-12.288q-23.552 0-40.448 19.456zM502.272-190.976q24.064 52.224 24.064 147.456v332.8q0 52.224-14.336 77.312t-57.344 25.088h-20.48v20.48h92.16q37.888 0 56.832-9.728t27.136-35.328 8.192-77.824v-332.8q0-79.872-16.896-127.488t-57.856-70.144-114.688-22.528v20.48q49.152 0 73.216 52.224z" />
<glyph unicode="&#xff4b;" glyph-name="uniFF4B" d="M577.536 2.56l-122.88 163.84v-235.52h-92.16v552.96q0 52.224-14.336 77.312t-57.344 25.088h-20.48v20.48h92.16q37.888 0 56.832-9.728t27.136-35.328 8.192-77.824v-302.080l128 163.84q26.624 32.768 56.32 49.664t76.8 16.896h30.72v-25.6q-27.648 0-53.248-11.264t-44.032-34.816l-112.64-143.36 128-163.84q29.696-38.912 55.808-58.368t56.832-24.576v-19.456q-22.528-10.24-51.2-10.24-87.040 0-148.48 81.92z" />
<glyph unicode="&#xff4c;" glyph-name="uniFF4C" d="M509.952 561.152q-14.336 25.088-57.344 25.088h-20.48v20.48h92.16q37.888 0 56.832-9.728t27.136-35.328 8.192-77.824v-552.96h-92.16v552.96q0 52.224-14.336 77.312z" />
<glyph unicode="&#xff4d;" glyph-name="uniFF4D" d="M233.472 366.592q-14.336 25.088-57.344 25.088h-20.48v20.48h92.16q37.888 0 57.856-10.24t29.184-30.72h5.12q21.504 21.504 55.808 36.352t77.312 14.848 73.728-15.872 49.152-55.808q26.624 33.792 68.096 52.736t85.504 18.944q65.536 0 104.448-40.96t38.912-143.36v-307.2h-92.16v307.2q0 73.728-20.48 105.984t-61.44 32.256q-28.672 0-60.416-20.992t-47.104-45.568q5.12-15.36 5.12-71.68v-307.2h-92.16v307.2q0 73.728-20.48 105.984t-61.44 32.256q-54.272 0-102.4-54.272v-391.168h-92.16v358.4q0 52.224-14.336 77.312z" />
<glyph unicode="&#xff4e;" glyph-name="uniFF4E" d="M356.352 366.592q-14.336 25.088-57.344 25.088h-20.48v20.48h92.16q37.888 0 57.856-10.24t29.184-30.72h5.12q21.504 21.504 55.808 36.352t77.312 14.848q76.8 0 125.44-40.96t48.64-143.36v-307.2h-92.16v307.2q0 71.68-32.256 104.96t-80.384 33.28q-54.272 0-102.4-54.272v-391.168h-92.16v358.4q0 52.224-14.336 77.312z" />
<glyph unicode="&#xff4f;" glyph-name="uniFF4F" d="M403.456-46.080q-51.2 33.28-77.824 90.624t-26.624 126.976 26.624 126.976 77.824 90.624 120.832 33.28 120.832-33.28 77.824-90.624 26.624-126.976-26.624-126.976-77.824-90.624-120.832-33.28-120.832 33.28zM591.36-10.752q29.184 27.648 45.056 75.776t15.872 106.496-15.872 106.496-45.056 75.776-67.072 27.648-67.072-27.648-45.056-75.776-15.872-106.496 15.872-106.496 45.056-75.776 67.072-27.648 67.072 27.648z" />
<glyph unicode="&#xff50;" glyph-name="uniFF50" d="M348.16 366.592q-14.336 25.088-57.344 25.088h-20.48v20.48h92.16q38.912 0 58.88-10.752t28.16-35.328h5.12q18.432 23.552 52.224 39.936t86.016 16.384q88.064 0 136.192-71.168t48.128-179.712q0-109.568-49.664-180.224t-144.896-70.656q-38.912 0-68.608 8.192t-59.392 22.528v-215.040h-92.16v552.96q0 52.224-14.336 77.312zM648.704 18.944q31.232 57.344 31.232 152.576 0 94.208-29.696 152.064t-88.064 57.856q-68.608 0-107.52-61.44v-327.68q30.72-14.336 53.248-22.528t44.032-8.192q65.536 0 96.768 57.344z" />
<glyph unicode="&#xff51;" glyph-name="uniFF51" d="M580.608-71.168q-29.696-8.192-68.608-8.192-95.232 0-144.896 70.656t-49.664 180.224 47.616 180.224 136.704 70.656q52.224 0 86.016-16.384t52.224-39.936h5.12l35.84 46.080h51.2v-675.84h-92.16v215.040q-29.696-14.336-59.392-22.528zM586.752-30.208q22.528 8.192 53.248 22.528v327.68q-21.504 28.672-45.056 45.056t-62.464 16.384q-58.368 0-88.064-57.856t-29.696-152.064q0-95.232 31.232-152.576t96.768-57.344q21.504 0 44.032 8.192z" />
<glyph unicode="&#xff52;" glyph-name="uniFF52" d="M395.264 366.592q-14.336 25.088-57.344 25.088h-10.24v20.48h81.92q38.912 0 58.88-10.752t28.16-35.328h5.12q18.432 23.552 49.664 39.936t73.216 16.384q40.96 0 61.44-15.36 17.408-13.312 35.84-46.080l-40.96-30.72q-11.264 15.36-32.768 23.040t-49.152 7.68q-30.72 0-56.32-13.824t-40.96-37.376v-378.88h-92.16v358.4q0 52.224-14.336 77.312z" />
<glyph unicode="&#xff53;" glyph-name="uniFF53" d="M368.64-38.4q-17.408 17.408-21.504 39.424t-4.096 68.096h20.48q9.216-51.2 44.544-79.36t98.816-28.16q56.32 0 84.48 19.456t28.16 52.224q0 29.696-22.016 51.2t-70.144 40.96l-61.44 25.6q-61.44 24.576-92.16 57.344t-30.72 80.896q0 62.464 47.104 97.792t121.856 35.328q112.64 0 153.6-40.96 17.408-17.408 21.504-38.912t4.096-68.608h-20.48q-8.192 51.2-43.008 79.36t-95.232 28.16q-48.128 0-75.264-19.968t-27.136-51.712q0-53.248 81.92-87.040l61.44-25.6q69.632-28.672 101.376-60.928t31.744-82.432q0-62.464-50.176-97.792t-129.024-35.328q-117.76 0-158.72 40.96z" />
<glyph unicode="&#xff54;" glyph-name="uniFF54" d="M467.968-46.592q-32.768 32.768-32.768 100.352v317.44h-71.68v40.96h71.68v92.16l51.2 61.44h40.96v-153.6h122.88v-40.96h-122.88v-317.44q0-92.16 71.68-92.16 24.576 0 41.472 5.12t35.328 15.36l10.24-20.48q-23.552-17.408-52.224-29.184t-75.776-11.776q-57.344 0-90.112 32.768z" />
<glyph unicode="&#xff55;" glyph-name="uniFF55" d="M414.208-38.4q-48.64 40.96-48.64 143.36v184.32q0 52.224-14.336 77.312t-57.344 25.088h-10.24v20.48h81.92q37.888 0 56.832-9.728t27.136-35.328 8.192-77.824v-184.32q0-71.68 32.256-104.96t80.384-33.28q54.272 0 102.4 54.272v391.168h92.16v-481.28h-51.2l-35.84 40.96h-5.12q-21.504-21.504-55.808-36.352t-77.312-14.848q-76.8 0-125.44 40.96z" />
<glyph unicode="&#xff56;" glyph-name="uniFF56" d="M335.872 374.784q-22.528 23.040-59.392 25.088v20.48q5.12 0 14.848 1.024t19.968 1.024q54.272 0 98.304-27.136t75.776-100.864l92.16-220.16 143.36 337.92h51.2l-209.92-491.52h-20.48l-158.72 373.76q-24.576 57.344-47.104 80.384z" />
<glyph unicode="&#xff57;" glyph-name="uniFF57" d="M208.384 374.784q-23.040 23.040-60.928 25.088v20.48q5.12 0 15.36 1.024t20.48 1.024q55.296 0 97.792-28.16t71.168-99.84l87.040-215.040 87.040 220.16q-24.576 54.272-46.592 76.288t-55.808 24.064v20.48q5.12 0 15.36 1.024t20.48 1.024q55.296 0 97.792-28.16t71.168-99.84l87.040-215.040 133.12 332.8h51.2l-199.68-491.52h-20.48l-128 317.44-128-317.44h-20.48l-148.48 373.76q-23.552 57.344-46.592 80.384z" />
<glyph unicode="&#xff58;" glyph-name="uniFF58" d="M387.072 309.76q-43.008 74.752-105.472 81.92v20.48h87.040q33.792 0 63.488-21.504t52.224-60.416l63.488-107.52 133.12 189.44h51.2l-163.84-230.4 89.088-148.48q41.984-73.728 110.592-81.92v-20.48h-92.16q-33.792 0-63.488 21.504t-52.224 60.416l-63.488 107.52-133.12-189.44h-51.2l163.84 230.4z" />
<glyph unicode="&#xff59;" glyph-name="uniFF59" d="M470.528-220.16q32.256 23.040 55.808 84.48l20.48 56.32-163.84 399.36q-28.672 73.728-112.64 81.92v20.48h87.040q89.088 0 122.88-81.92l116.736-283.648 129.024 355.328h51.2l-199.68-547.84q-29.696-80.896-65.536-109.568t-93.184-28.672h-30.72v30.72q50.176 0 82.432 23.040z" />
<glyph unicode="&#xff5a;" glyph-name="uniFF5A" d="M590.848 371.2h-117.76q-63.488 0-95.744-24.064t-32.256-68.096h-20.48v51.2q0 81.92 87.040 81.92h312.32l-276.48-440.32h276.48v-40.96h-399.36v19.456z" />
</font>
</defs>
</svg>
